<?xml version="1.0" encoding="UTF-8" standalone="no"?>
<!-- Created with Inkscape (http://www.inkscape.org/) -->

<svg
   xmlns:dc="http://purl.org/dc/elements/1.1/"
   xmlns:cc="http://creativecommons.org/ns#"
   xmlns:rdf="http://www.w3.org/1999/02/22-rdf-syntax-ns#"
   xmlns:svg="http://www.w3.org/2000/svg"
   xmlns="http://www.w3.org/2000/svg"
   xmlns:sodipodi="http://sodipodi.sourceforge.net/DTD/sodipodi-0.dtd"
   xmlns:inkscape="http://www.inkscape.org/namespaces/inkscape"
   width="48.408321mm"
   height="62.025227mm"
   viewBox="0 0 171.52555 219.77442"
   id="svg2"
   version="1.1"
   inkscape:version="0.91 r13725"
   sodipodi:docname="CinePic_logo_white.svg">
  <defs
     id="defs4" />
  <sodipodi:namedview
     id="base"
     pagecolor="#ffffff"
     bordercolor="#666666"
     borderopacity="1.0"
     inkscape:pageopacity="0.0"
     inkscape:pageshadow="2"
     inkscape:zoom="0.35"
     inkscape:cx="87.51774"
     inkscape:cy="13.945967"
     inkscape:document-units="px"
     inkscape:current-layer="layer1"
     showgrid="false"
     inkscape:window-width="1366"
     inkscape:window-height="743"
     inkscape:window-x="0"
     inkscape:window-y="25"
     inkscape:window-maximized="1"
     showborder="false"
     fit-margin-top="0"
     fit-margin-left="0"
     fit-margin-right="0"
     fit-margin-bottom="0" />
  <metadata
     id="metadata7">
    <rdf:RDF>
      <cc:Work
         rdf:about="">
        <dc:format>image/svg+xml</dc:format>
        <dc:type
           rdf:resource="http://purl.org/dc/dcmitype/StillImage" />
        <dc:title></dc:title>
      </cc:Work>
    </rdf:RDF>
  </metadata>
  <g
     inkscape:label="Layer 1"
     inkscape:groupmode="layer"
     id="layer1"
     transform="translate(-649.94867,-242.05223)">
    <path
       style="fill:#000000;stroke:none;stroke-width:5.32999992;stroke-miterlimit:4;stroke-dasharray:none"
       d="m 649.94867,413.25522 171.4286,0 0,48.57144 -171.4286,0 z"
       id="rect6331" />
    <flowRoot
       xml:space="preserve"
       id="flowRoot3348"
       style="font-style:normal;font-weight:normal;font-size:40px;line-height:125%;font-family:sans-serif;letter-spacing:0px;word-spacing:0px;fill:#000000;fill-opacity:1;stroke:none;stroke-width:1px;stroke-linecap:butt;stroke-linejoin:miter;stroke-opacity:1"><flowRegion
         id="flowRegion3350"><rect
           id="rect3352"
           width="161.6244"
           height="84.852814"
           x="341.43155"
           y="255.35185" /></flowRegion><flowPara
         id="flowPara3354" /></flowRoot>    <path
       style="fill:#ffffff;stroke:none;stroke-width:5.32999992;stroke-miterlimit:4;stroke-dasharray:none"
       d="m 650.04565,242.0522 171.42858,0 0,171.42857 -171.42858,0 z"
       id="rect4177" />
    <g
       transform="translate(574.30599,63.433727)"
       id="g4179"
       style="fill:#000000">
      <g
         transform="matrix(1.5206989,0,0,1.5206989,-4.75394,-164.96302)"
         style="font-style:normal;font-weight:normal;font-size:40px;line-height:125%;font-family:sans-serif;letter-spacing:0px;word-spacing:0px;fill:#000000;fill-opacity:1;stroke:none;stroke-width:1px;stroke-linecap:butt;stroke-linejoin:miter;stroke-opacity:1"
         id="flowRoot4181">
        <path
           d="m 90.129788,253.32647 q -8.885717,0 -8.885717,14.29441 l 0,31.13865 q 0,6.25863 2.240746,9.50385 2.318013,3.24522 6.954039,3.24522 8.576649,0 9.967454,-11.82187 l 3.78609,0.61814 q -1.46807,14.60348 -14.989817,14.60348 -16.844229,0 -16.844229,-16.38062 l 0,-30.90685 q 0,-17.92596 16.766962,-17.92596 9.426586,0 13.367204,6.25863 l -4.172419,2.00895 q -2.086212,-4.63603 -8.190313,-4.63603 z"
           style="font-style:normal;font-variant:normal;font-weight:normal;font-stretch:normal;font-size:77.2671051px;font-family:Engebrechtre;-inkscape-font-specification:Engebrechtre;fill:#000000"
           id="path7464" />
      </g>
      <g
         style="font-style:normal;font-weight:normal;font-size:40px;line-height:125%;font-family:sans-serif;letter-spacing:0px;word-spacing:0px;fill:#000000;fill-opacity:1;stroke:none;stroke-width:1px;stroke-linecap:butt;stroke-linejoin:miter;stroke-opacity:1"
         id="text4189">
        <path
           d="m 180.37899,259.75402 8.46,0 q 7.6375,0 11.6325,-4.465 4.1125,-4.465 4.1125,-15.275 0,-10.9275 -4.1125,-15.1575 -3.995,-4.3475 -11.6325,-4.3475 l -8.46,0 0,39.245 z m 0,52.0525 -13.395,0 0,-96.7025 18.6825,0 q 16.215,0 24.0875,5.64 7.8725,5.5225 7.8725,18.9175 0,13.63 -7.05,19.505 -7.05,5.875 -21.7375,5.875 l -8.46,0 0,46.765 z"
           style="font-style:normal;font-variant:normal;font-weight:normal;font-stretch:normal;font-size:117.5px;font-family:Engebrechtre;-inkscape-font-specification:Engebrechtre;fill:#000000"
           id="path7467" />
      </g>
    </g>
    <g
       transform="matrix(1.2235482,0,0,1.2235482,556.66781,-90.98421)"
       style="font-style:normal;font-weight:normal;font-size:40px;line-height:125%;font-family:sans-serif;letter-spacing:0px;word-spacing:0px;fill:#ffffff;fill-opacity:1;stroke:none;stroke-width:1px;stroke-linecap:butt;stroke-linejoin:miter;stroke-opacity:1"
       id="flowRoot4193">
      <path
         d="m 91.986328,416.91811 c -7.441406,0 -12.714844,6.01563 -12.714844,14.96094 0,9.16016 5.078125,14.49219 12.675782,14.49219 3.4375,0 5.429687,-1.21094 7.402343,-2.59766 0.332032,-0.21484 0.605469,-0.33203 0.820311,-0.33203 0.56641,0 0.83985,0.72266 0.97656,2.36328 l 0.91797,0 c -0.11718,-2.03125 -0.15625,-4.76562 -0.15625,-9.60937 l -0.91797,0 c -0.41015,3.24218 -0.68359,4.76562 -1.855464,6.32812 -1.503907,2.16797 -4.433594,3.04688 -6.835938,3.04688 -5.15625,0 -9.042969,-4.92188 -9.042969,-13.84766 0,-8.67188 3.4375,-14.08203 8.652344,-14.08203 2.753906,0 5.390625,0.95703 7.070313,3.125 1.132814,1.44531 1.445314,2.51953 2.011714,5.91797 l 0.91797,0 c 0,-4.64844 0.0391,-7.2461 0.15625,-9.19922 l -0.91797,0 c -0.13671,1.64062 -0.46875,2.38281 -1.01562,2.38281 -0.234376,0 -0.488282,-0.11719 -0.781251,-0.35156 -1.757812,-1.34766 -3.847656,-2.59766 -7.363281,-2.59766 z"
         style="font-style:normal;font-variant:normal;font-weight:normal;font-stretch:normal;font-family:'Playfair Display';-inkscape-font-specification:'Playfair Display';fill:#ffffff"
         id="path7449" />
      <path
         d="m 110.36523,415.19936 c -1.40625,0 -2.55859,1.17188 -2.55859,2.5586 0,1.40625 1.15234,2.55859 2.55859,2.55859 1.38672,0 2.5586,-1.15234 2.5586,-2.55859 0,-1.38672 -1.17188,-2.5586 -2.5586,-2.5586 z m 2.07032,9.57031 c -1.15235,0.39063 -2.59766,0.54688 -4.16016,0.54688 -0.80078,0 -1.64062,-0.0391 -2.48047,-0.11719 l 0,0.83985 c 2.32422,0 3.04688,1.13281 3.04688,3.53515 l 0,12.51953 c 0,2.22657 -0.83985,2.8711 -3.04688,2.8711 l 0,0.83984 c 0.91797,-0.0391 3.00781,-0.15625 4.84375,-0.15625 1.83594,0 3.92578,0.11719 4.84375,0.15625 l 0,-0.83984 c -2.20703,0 -3.04687,-0.64453 -3.04687,-2.8711 l 0,-17.32422 z"
         style="font-style:normal;font-variant:normal;font-weight:normal;font-stretch:normal;font-family:'Playfair Display';-inkscape-font-specification:'Playfair Display';fill:#ffffff"
         id="path7451" />
      <path
         d="m 130.9707,424.65249 c -2.73437,0 -5.41015,1.23047 -6.8164,4.82422 l 0,-4.70704 c -1.15235,0.39063 -2.59766,0.54688 -4.16016,0.54688 -0.80078,0 -1.64062,-0.0391 -2.48047,-0.11719 l 0,0.83985 c 2.32422,0 3.04688,1.13281 3.04688,3.53515 l 0,12.51953 c 0,2.22657 -0.83985,2.8711 -3.04688,2.8711 l 0,0.83984 c 0.91797,-0.0391 3.04688,-0.15625 4.80469,-0.15625 1.75781,0 3.65234,0.11719 4.49219,0.15625 l 0,-0.83984 c -1.9336,0 -2.65625,-0.64453 -2.65625,-2.8711 l 0,-8.88672 c 0,-4.08203 2.24609,-7.28515 5.60547,-7.28515 2.89062,0 3.24218,2.1289 3.24218,4.60937 l 0,11.5625 c 0,2.22657 -0.72265,2.8711 -2.63672,2.8711 l 0,0.83984 c 0.83985,-0.0391 2.71485,-0.15625 4.47266,-0.15625 1.75781,0 3.88672,0.11719 4.80469,0.15625 l 0,-0.83984 c -2.20703,0 -3.04688,-0.64453 -3.04688,-2.8711 l 0,-10.68359 c 0,-2.73438 -0.39062,-4.16016 -1.38672,-5.25391 -0.91796,-0.95703 -2.20703,-1.5039 -4.23828,-1.5039 z"
         style="font-style:normal;font-variant:normal;font-weight:normal;font-stretch:normal;font-family:'Playfair Display';-inkscape-font-specification:'Playfair Display';fill:#ffffff"
         id="path7453" />
      <path
         d="m 157.98242,440.68764 c -1.38672,2.98828 -3.47656,4.00391 -5.8789,4.00391 -3.06641,0 -6.11329,-3.20313 -6.11329,-8.69141 0,-0.8789 0.0391,-1.79687 0.13672,-2.55859 l 12.5,0 c 0,-6.03516 -2.79297,-8.78906 -7.48047,-8.78906 -5.48828,0 -9.04296,4.3164 -9.04296,11.34765 0,6.13282 3.39843,10.3711 9.19921,10.3711 3.96485,0 6.60157,-2.69532 7.48047,-5.3711 l -0.80078,-0.3125 z m -6.99219,-15.27343 c 2.67579,0 3.92579,3.35937 3.78907,7.26562 l -8.71094,0 c 0.42969,-5.03906 2.53906,-7.26562 4.92187,-7.26562 z"
         style="font-style:normal;font-variant:normal;font-weight:normal;font-stretch:normal;font-family:'Playfair Display';-inkscape-font-specification:'Playfair Display';fill:#ffffff"
         id="path7455" />
      <path
         d="m 168.90039,434.35952 3.08594,0 c 8.28125,0 10.52734,-5.07813 10.52734,-8.94531 0,-4.64844 -3.20312,-7.89063 -9.64844,-7.89063 -0.95703,0 -3.51562,0.0781 -6.03515,0.0781 -1.75781,0 -3.76953,-0.0391 -4.88281,-0.11719 l 0,0.80078 c 2.71484,0.11719 3.24218,0.52734 3.24218,3.4375 l 0,19.84375 c 0,2.91016 -0.52734,3.32031 -3.24218,3.4375 l 0,0.80078 c 1.11328,-0.0781 3.04687,-0.11719 5.11718,-0.11719 2.16797,0 4.49219,0.0391 5.87891,0.11719 l 0,-0.80078 c -3.35938,-0.11719 -4.04297,-0.52734 -4.04297,-3.4375 l 0,-7.20703 z m 2.96875,-16.07422 c 4.84375,0 6.64063,2.51953 6.64063,7.55859 0,4.08203 -1.25,7.71485 -6.91407,7.71485 l -2.69531,0 0,-11.83594 c 0,-2.75391 0.52734,-3.4375 2.96875,-3.4375 z"
         style="font-style:normal;font-variant:normal;font-weight:normal;font-stretch:normal;font-family:'Playfair Display';-inkscape-font-specification:'Playfair Display';fill:#ffffff"
         id="path7457" />
      <path
         d="m 189.42773,415.19936 c -1.40625,0 -2.55859,1.17188 -2.55859,2.5586 0,1.40625 1.15234,2.55859 2.55859,2.55859 1.38672,0 2.5586,-1.15234 2.5586,-2.55859 0,-1.38672 -1.17188,-2.5586 -2.5586,-2.5586 z m 2.07032,9.57031 c -1.15235,0.39063 -2.59766,0.54688 -4.16016,0.54688 -0.80078,0 -1.64062,-0.0391 -2.48047,-0.11719 l 0,0.83985 c 2.32422,0 3.04688,1.13281 3.04688,3.53515 l 0,12.51953 c 0,2.22657 -0.83985,2.8711 -3.04688,2.8711 l 0,0.83984 c 0.91797,-0.0391 3.00781,-0.15625 4.84375,-0.15625 1.83594,0 3.92578,0.11719 4.84375,0.15625 l 0,-0.83984 c -2.20703,0 -3.04687,-0.64453 -3.04687,-2.8711 l 0,-17.32422 z"
         style="font-style:normal;font-variant:normal;font-weight:normal;font-stretch:normal;font-family:'Playfair Display';-inkscape-font-specification:'Playfair Display';fill:#ffffff"
         id="path7459" />
      <path
         d="m 206.57617,424.65249 c -5.46875,0 -9.3164,4.55078 -9.3164,11.11328 0,6.60156 3.88671,10.60547 8.84765,10.60547 4.27735,0 6.5625,-2.96875 7.36328,-5.56641 l -0.76172,-0.27344 c -1.40625,3.02735 -3.73046,4.1211 -5.80078,4.1211 -3.08593,0 -5.76172,-2.40235 -5.76172,-9.49219 0,-7.55859 3.08594,-9.80469 5.72266,-9.80469 1.52344,0 3.06641,0.72266 3.59375,1.67969 -0.91797,0.25391 -1.67969,1.01562 -1.67969,2.20703 0,1.28906 0.9961,2.01172 2.20703,2.01172 1.19141,0 2.10938,-0.80078 2.10938,-2.24609 0,-1.21094 -0.68359,-2.28516 -1.875,-3.08594 -1.28906,-0.83985 -2.96875,-1.26953 -4.64844,-1.26953 z"
         style="font-style:normal;font-variant:normal;font-weight:normal;font-stretch:normal;font-family:'Playfair Display';-inkscape-font-specification:'Playfair Display';fill:#ffffff"
         id="path7461" />
    </g>
    <g
       id="g7366">
      <g
         id="g7350">
        <g
           id="g7335">
          <path
             style="fill:#000000;stroke:none;stroke-width:5.32999992;stroke-miterlimit:4;stroke-dasharray:none"
             d="m 649.94867,413.25522 171.4286,0 0,48.57144 -171.4286,0 z"
             id="rect7309" />
          <path
             style="fill:#ffffff;stroke:none;stroke-width:5.32999992;stroke-miterlimit:4;stroke-dasharray:none"
             d="m 650.04565,242.0522 171.42858,0 0,171.42857 -171.42858,0 z"
             id="rect7311" />
          <g
             transform="translate(574.30599,63.433727)"
             id="g7313"
             style="fill:#000000">
            <g
               transform="matrix(1.5206989,0,0,1.5206989,-4.75394,-164.96302)"
               style="font-style:normal;font-weight:normal;font-size:40px;line-height:125%;font-family:sans-serif;letter-spacing:0px;word-spacing:0px;fill:#000000;fill-opacity:1;stroke:none;stroke-width:1px;stroke-linecap:butt;stroke-linejoin:miter;stroke-opacity:1"
               id="flowRoot7315">
              <path
                 d="m 90.129788,253.32647 q -8.885717,0 -8.885717,14.29441 l 0,31.13865 q 0,6.25863 2.240746,9.50385 2.318013,3.24522 6.954039,3.24522 8.576649,0 9.967454,-11.82187 l 3.78609,0.61814 q -1.46807,14.60348 -14.989817,14.60348 -16.844229,0 -16.844229,-16.38062 l 0,-30.90685 q 0,-17.92596 16.766962,-17.92596 9.426586,0 13.367204,6.25863 l -4.172419,2.00895 q -2.086212,-4.63603 -8.190313,-4.63603 z"
                 style="font-style:normal;font-variant:normal;font-weight:normal;font-stretch:normal;font-size:77.2671051px;font-family:Engebrechtre;-inkscape-font-specification:Engebrechtre;fill:#000000"
                 id="path7428" />
            </g>
            <g
               style="font-style:normal;font-weight:normal;font-size:40px;line-height:125%;font-family:sans-serif;letter-spacing:0px;word-spacing:0px;fill:#000000;fill-opacity:1;stroke:none;stroke-width:1px;stroke-linecap:butt;stroke-linejoin:miter;stroke-opacity:1"
               id="text7323">
              <path
                 d="m 180.37899,259.75402 8.46,0 q 7.6375,0 11.6325,-4.465 4.1125,-4.465 4.1125,-15.275 0,-10.9275 -4.1125,-15.1575 -3.995,-4.3475 -11.6325,-4.3475 l -8.46,0 0,39.245 z m 0,52.0525 -13.395,0 0,-96.7025 18.6825,0 q 16.215,0 24.0875,5.64 7.8725,5.5225 7.8725,18.9175 0,13.63 -7.05,19.505 -7.05,5.875 -21.7375,5.875 l -8.46,0 0,46.765 z"
                 style="font-style:normal;font-variant:normal;font-weight:normal;font-stretch:normal;font-size:117.5px;font-family:Engebrechtre;-inkscape-font-specification:Engebrechtre;fill:#000000"
                 id="path7431" />
            </g>
          </g>
          <g
             transform="matrix(1.2235482,0,0,1.2235482,556.66781,-90.98421)"
             style="font-style:normal;font-weight:normal;font-size:40px;line-height:125%;font-family:sans-serif;letter-spacing:0px;word-spacing:0px;fill:#ffffff;fill-opacity:1;stroke:none;stroke-width:1px;stroke-linecap:butt;stroke-linejoin:miter;stroke-opacity:1"
             id="flowRoot7327">
            <path
               d="m 91.986328,416.91811 c -7.441406,0 -12.714844,6.01563 -12.714844,14.96094 0,9.16016 5.078125,14.49219 12.675782,14.49219 3.4375,0 5.429687,-1.21094 7.402343,-2.59766 0.332032,-0.21484 0.605469,-0.33203 0.820311,-0.33203 0.56641,0 0.83985,0.72266 0.97656,2.36328 l 0.91797,0 c -0.11718,-2.03125 -0.15625,-4.76562 -0.15625,-9.60937 l -0.91797,0 c -0.41015,3.24218 -0.68359,4.76562 -1.855464,6.32812 -1.503907,2.16797 -4.433594,3.04688 -6.835938,3.04688 -5.15625,0 -9.042969,-4.92188 -9.042969,-13.84766 0,-8.67188 3.4375,-14.08203 8.652344,-14.08203 2.753906,0 5.390625,0.95703 7.070313,3.125 1.132814,1.44531 1.445314,2.51953 2.011714,5.91797 l 0.91797,0 c 0,-4.64844 0.0391,-7.2461 0.15625,-9.19922 l -0.91797,0 c -0.13671,1.64062 -0.46875,2.38281 -1.01562,2.38281 -0.234376,0 -0.488282,-0.11719 -0.781251,-0.35156 -1.757812,-1.34766 -3.847656,-2.59766 -7.363281,-2.59766 z"
               style="font-style:normal;font-variant:normal;font-weight:normal;font-stretch:normal;font-family:'Playfair Display';-inkscape-font-specification:'Playfair Display';fill:#ffffff"
               id="path7434" />
            <path
               d="m 110.36523,415.19936 c -1.40625,0 -2.55859,1.17188 -2.55859,2.5586 0,1.40625 1.15234,2.55859 2.55859,2.55859 1.38672,0 2.5586,-1.15234 2.5586,-2.55859 0,-1.38672 -1.17188,-2.5586 -2.5586,-2.5586 z m 2.07032,9.57031 c -1.15235,0.39063 -2.59766,0.54688 -4.16016,0.54688 -0.80078,0 -1.64062,-0.0391 -2.48047,-0.11719 l 0,0.83985 c 2.32422,0 3.04688,1.13281 3.04688,3.53515 l 0,12.51953 c 0,2.22657 -0.83985,2.8711 -3.04688,2.8711 l 0,0.83984 c 0.91797,-0.0391 3.00781,-0.15625 4.84375,-0.15625 1.83594,0 3.92578,0.11719 4.84375,0.15625 l 0,-0.83984 c -2.20703,0 -3.04687,-0.64453 -3.04687,-2.8711 l 0,-17.32422 z"
               style="font-style:normal;font-variant:normal;font-weight:normal;font-stretch:normal;font-family:'Playfair Display';-inkscape-font-specification:'Playfair Display';fill:#ffffff"
               id="path7436" />
            <path
               d="m 130.9707,424.65249 c -2.73437,0 -5.41015,1.23047 -6.8164,4.82422 l 0,-4.70704 c -1.15235,0.39063 -2.59766,0.54688 -4.16016,0.54688 -0.80078,0 -1.64062,-0.0391 -2.48047,-0.11719 l 0,0.83985 c 2.32422,0 3.04688,1.13281 3.04688,3.53515 l 0,12.51953 c 0,2.22657 -0.83985,2.8711 -3.04688,2.8711 l 0,0.83984 c 0.91797,-0.0391 3.04688,-0.15625 4.80469,-0.15625 1.75781,0 3.65234,0.11719 4.49219,0.15625 l 0,-0.83984 c -1.9336,0 -2.65625,-0.64453 -2.65625,-2.8711 l 0,-8.88672 c 0,-4.08203 2.24609,-7.28515 5.60547,-7.28515 2.89062,0 3.24218,2.1289 3.24218,4.60937 l 0,11.5625 c 0,2.22657 -0.72265,2.8711 -2.63672,2.8711 l 0,0.83984 c 0.83985,-0.0391 2.71485,-0.15625 4.47266,-0.15625 1.75781,0 3.88672,0.11719 4.80469,0.15625 l 0,-0.83984 c -2.20703,0 -3.04688,-0.64453 -3.04688,-2.8711 l 0,-10.68359 c 0,-2.73438 -0.39062,-4.16016 -1.38672,-5.25391 -0.91796,-0.95703 -2.20703,-1.5039 -4.23828,-1.5039 z"
               style="font-style:normal;font-variant:normal;font-weight:normal;font-stretch:normal;font-family:'Playfair Display';-inkscape-font-specification:'Playfair Display';fill:#ffffff"
               id="path7438" />
            <path
               d="m 157.98242,440.68764 c -1.38672,2.98828 -3.47656,4.00391 -5.8789,4.00391 -3.06641,0 -6.11329,-3.20313 -6.11329,-8.69141 0,-0.8789 0.0391,-1.79687 0.13672,-2.55859 l 12.5,0 c 0,-6.03516 -2.79297,-8.78906 -7.48047,-8.78906 -5.48828,0 -9.04296,4.3164 -9.04296,11.34765 0,6.13282 3.39843,10.3711 9.19921,10.3711 3.96485,0 6.60157,-2.69532 7.48047,-5.3711 l -0.80078,-0.3125 z m -6.99219,-15.27343 c 2.67579,0 3.92579,3.35937 3.78907,7.26562 l -8.71094,0 c 0.42969,-5.03906 2.53906,-7.26562 4.92187,-7.26562 z"
               style="font-style:normal;font-variant:normal;font-weight:normal;font-stretch:normal;font-family:'Playfair Display';-inkscape-font-specification:'Playfair Display';fill:#ffffff"
               id="path7440" />
            <path
               d="m 168.90039,434.35952 3.08594,0 c 8.28125,0 10.52734,-5.07813 10.52734,-8.94531 0,-4.64844 -3.20312,-7.89063 -9.64844,-7.89063 -0.95703,0 -3.51562,0.0781 -6.03515,0.0781 -1.75781,0 -3.76953,-0.0391 -4.88281,-0.11719 l 0,0.80078 c 2.71484,0.11719 3.24218,0.52734 3.24218,3.4375 l 0,19.84375 c 0,2.91016 -0.52734,3.32031 -3.24218,3.4375 l 0,0.80078 c 1.11328,-0.0781 3.04687,-0.11719 5.11718,-0.11719 2.16797,0 4.49219,0.0391 5.87891,0.11719 l 0,-0.80078 c -3.35938,-0.11719 -4.04297,-0.52734 -4.04297,-3.4375 l 0,-7.20703 z m 2.96875,-16.07422 c 4.84375,0 6.64063,2.51953 6.64063,7.55859 0,4.08203 -1.25,7.71485 -6.91407,7.71485 l -2.69531,0 0,-11.83594 c 0,-2.75391 0.52734,-3.4375 2.96875,-3.4375 z"
               style="font-style:normal;font-variant:normal;font-weight:normal;font-stretch:normal;font-family:'Playfair Display';-inkscape-font-specification:'Playfair Display';fill:#ffffff"
               id="path7442" />
            <path
               d="m 189.42773,415.19936 c -1.40625,0 -2.55859,1.17188 -2.55859,2.5586 0,1.40625 1.15234,2.55859 2.55859,2.55859 1.38672,0 2.5586,-1.15234 2.5586,-2.55859 0,-1.38672 -1.17188,-2.5586 -2.5586,-2.5586 z m 2.07032,9.57031 c -1.15235,0.39063 -2.59766,0.54688 -4.16016,0.54688 -0.80078,0 -1.64062,-0.0391 -2.48047,-0.11719 l 0,0.83985 c 2.32422,0 3.04688,1.13281 3.04688,3.53515 l 0,12.51953 c 0,2.22657 -0.83985,2.8711 -3.04688,2.8711 l 0,0.83984 c 0.91797,-0.0391 3.00781,-0.15625 4.84375,-0.15625 1.83594,0 3.92578,0.11719 4.84375,0.15625 l 0,-0.83984 c -2.20703,0 -3.04687,-0.64453 -3.04687,-2.8711 l 0,-17.32422 z"
               style="font-style:normal;font-variant:normal;font-weight:normal;font-stretch:normal;font-family:'Playfair Display';-inkscape-font-specification:'Playfair Display';fill:#ffffff"
               id="path7444" />
            <path
               d="m 206.57617,424.65249 c -5.46875,0 -9.3164,4.55078 -9.3164,11.11328 0,6.60156 3.88671,10.60547 8.84765,10.60547 4.27735,0 6.5625,-2.96875 7.36328,-5.56641 l -0.76172,-0.27344 c -1.40625,3.02735 -3.73046,4.1211 -5.80078,4.1211 -3.08593,0 -5.76172,-2.40235 -5.76172,-9.49219 0,-7.55859 3.08594,-9.80469 5.72266,-9.80469 1.52344,0 3.06641,0.72266 3.59375,1.67969 -0.91797,0.25391 -1.67969,1.01562 -1.67969,2.20703 0,1.28906 0.9961,2.01172 2.20703,2.01172 1.19141,0 2.10938,-0.80078 2.10938,-2.24609 0,-1.21094 -0.68359,-2.28516 -1.875,-3.08594 -1.28906,-0.83985 -2.96875,-1.26953 -4.64844,-1.26953 z"
               style="font-style:normal;font-variant:normal;font-weight:normal;font-stretch:normal;font-family:'Playfair Display';-inkscape-font-specification:'Playfair Display';fill:#ffffff"
               id="path7446" />
          </g>
        </g>
      </g>
    </g>
  </g>
</svg>
