<?xml version="1.0" encoding="UTF-8" standalone="no"?>
<svg
   xmlns:dc="http://purl.org/dc/elements/1.1/"
   xmlns:cc="http://creativecommons.org/ns#"
   xmlns:rdf="http://www.w3.org/1999/02/22-rdf-syntax-ns#"
   xmlns:svg="http://www.w3.org/2000/svg"
   xmlns="http://www.w3.org/2000/svg"
   version="1.1"
   id="svg2"
   viewBox="0 0 226.20856 215.6707"
   height="60.867065mm"
   width="63.841084mm">
  <defs
     id="defs4" />
  <metadata
     id="metadata7">
    <rdf:RDF>
      <cc:Work
         rdf:about="">
        <dc:format>image/svg+xml</dc:format>
        <dc:type
           rdf:resource="http://purl.org/dc/dcmitype/StillImage" />
        <dc:title></dc:title>
      </cc:Work>
    </rdf:RDF>
  </metadata>
  <g
     transform="translate(-259.75286,-252.68736)"
     id="layer1">
    <path
       id="path4136"
       d="m 372.85715,424.41932 c -3.8366,0 -63.36462,40.59214 -66.46849,38.33705 -3.10388,-2.2551 17.10637,-71.41328 15.92079,-75.0621 -1.18557,-3.64882 -58.18617,-47.71968 -57.00059,-51.3685 1.18557,-3.64882 73.20422,-5.79879 76.30809,-8.05388 3.10388,-2.2551 27.40359,-70.08453 31.24019,-70.08453 3.8366,0 28.13633,67.82943 31.2402,70.08453 3.10387,2.25509 75.12252,4.40505 76.30809,8.05387 1.18558,3.64882 -55.81502,47.71968 -57.00059,51.3685 -1.18557,3.64883 19.02468,72.807 15.92081,75.0621 -3.10387,2.25509 -62.6319,-38.33704 -66.4685,-38.33704 z"
       style="fill:#2a7fff;stroke:#2a7fff;stroke-width:11;stroke-miterlimit:4;stroke-dasharray:none;stroke-opacity:1;fill-opacity:1" />
  </g>
</svg>
