<?xml version="1.0" encoding="UTF-8" standalone="no"?>
<!-- Created with Inkscape (http://www.inkscape.org/) -->

<svg
   xmlns:dc="http://purl.org/dc/elements/1.1/"
   xmlns:cc="http://creativecommons.org/ns#"
   xmlns:rdf="http://www.w3.org/1999/02/22-rdf-syntax-ns#"
   xmlns:svg="http://www.w3.org/2000/svg"
   xmlns="http://www.w3.org/2000/svg"
   xmlns:sodipodi="http://sodipodi.sourceforge.net/DTD/sodipodi-0.dtd"
   xmlns:inkscape="http://www.inkscape.org/namespaces/inkscape"
   width="121.63778mm"
   height="121.63778mm"
   viewBox="0 0 431.00001 431"
   id="svg2"
   version="1.1"
   inkscape:version="0.91 r13725"
   sodipodi:docname="user-default-round-avatar.svg">
  <defs
     id="defs4" />
  <sodipodi:namedview
     id="base"
     pagecolor="#ffffff"
     bordercolor="#666666"
     borderopacity="1.0"
     inkscape:pageopacity="0.0"
     inkscape:pageshadow="2"
     inkscape:zoom="0.1767767"
     inkscape:cx="263.50804"
     inkscape:cy="330.88361"
     inkscape:document-units="px"
     inkscape:current-layer="layer1"
     showgrid="false"
     fit-margin-top="0"
     fit-margin-left="0"
     fit-margin-right="0"
     fit-margin-bottom="0"
     inkscape:window-width="1366"
     inkscape:window-height="743"
     inkscape:window-x="0"
     inkscape:window-y="25"
     inkscape:window-maximized="1" />
  <metadata
     id="metadata7">
    <rdf:RDF>
      <cc:Work
         rdf:about="">
        <dc:format>image/svg+xml</dc:format>
        <dc:type
           rdf:resource="http://purl.org/dc/dcmitype/StillImage" />
        <dc:title></dc:title>
      </cc:Work>
    </rdf:RDF>
  </metadata>
  <g
     inkscape:label="Layer 1"
     inkscape:groupmode="layer"
     id="layer1"
     transform="translate(-156.5,-362.86218)">
    <g
       id="g4156">
      <path
         id="path3342"
         d="m 582,578.36218 a 210,210 0 0 1 -210,210 210,210 0 0 1 -210,-210 210,210 0 0 1 210,-210 210,210 0 0 1 210,210 z"
         style="fill:#000000;stroke:#000000;stroke-width:11;stroke-miterlimit:4;stroke-dasharray:none"
         inkscape:connector-curvature="0" />
      <path
         sodipodi:nodetypes="ccccc"
         inkscape:connector-curvature="0"
         id="path4144"
         d="m 370.24414,640.36133 c -67.09718,0.005 -128.8083,35.86026 -160.8125,61.31836 39.84117,49.7191 100.09981,78.66224 163.8125,78.68164 62.33663,-0.0213 121.442,-27.73562 161.32422,-75.64453 -30.65515,-27.1202 -94.42119,-64.33235 -164.32422,-64.35547 z"
         style="fill:#ffffff;stroke:none;stroke-width:11;stroke-miterlimit:4;stroke-dasharray:none" />
      <path
         id="path4150"
         d="m 477,541.36218 a 105,105 0 0 1 -105,105 105,105 0 0 1 -105,-105 105,105 0 0 1 105,-105 105,105 0 0 1 105,105 z"
         style="fill:#ffffff;stroke:none;stroke-width:11;stroke-miterlimit:4;stroke-dasharray:none"
         inkscape:connector-curvature="0" />
    </g>
  </g>
</svg>
